HIERARCHY
ROOT joint_Root
{
	OFFSET 0.0 0.0 0.0
	CHANNELS 6 Xposition Yposition Zposition Zrotation Xrotation Yrotation 
	JOINT Hips
	{
		OFFSET 4.5925 91.4895 -427.239
		CHANNELS 6 Xposition Yposition Zposition Zrotation Xrotation Yrotation 
		JOINT Spine
		{
			OFFSET 15.7357 0.0 0.0
			CHANNELS 6 Xposition Yposition Zposition Zrotation Xrotation Yrotation 
			JOINT Chest
			{
				OFFSET 8.98455 -0.406207 0.0
				CHANNELS 6 Xposition Yposition Zposition Zrotation Xrotation Yrotation 
				JOINT Neck
				{
					OFFSET 16.3773 0.0 0.0
					CHANNELS 6 Xposition Yposition Zposition Zrotation Xrotation Yrotation 
					JOINT Head
					{
						OFFSET 6.45672 0.0 0.0
						CHANNELS 6 Xposition Yposition Zposition Zrotation Xrotation Yrotation 
						End Site
						{
							OFFSET 0.0 0.0 0.0
						}
					}
				}
				JOINT Shoulder_L
				{
					OFFSET 12.9942 -0.242716 4.98039
					CHANNELS 6 Xposition Yposition Zposition Zrotation Xrotation Yrotation 
					JOINT UpperArm_L
					{
						OFFSET 5.34809 0.0 0.0
						CHANNELS 6 Xposition Yposition Zposition Zrotation Xrotation Yrotation 
						JOINT LowerArm_L
						{
							OFFSET 24.3286 1.87007e-05 0.0
							CHANNELS 6 Xposition Yposition Zposition Zrotation Xrotation Yrotation 
							JOINT Hand_L
							{
								OFFSET 22.2916 0.0 0.0
								CHANNELS 6 Xposition Yposition Zposition Zrotation Xrotation Yrotation 
								End Site
								{
									OFFSET 0.0 0.0 0.0
								}
							}
						}
					}
				}
				JOINT Shoulder_R
				{
					OFFSET 12.9945 -0.242716 -4.98039
					CHANNELS 6 Xposition Yposition Zposition Zrotation Xrotation Yrotation 
					JOINT UpperArm_R
					{
						OFFSET -5.34813 0.0 0.0
						CHANNELS 6 Xposition Yposition Zposition Zrotation Xrotation Yrotation 
						JOINT LowerArm_R
						{
							OFFSET -24.3289 0.000322201 0.0
							CHANNELS 6 Xposition Yposition Zposition Zrotation Xrotation Yrotation 
							JOINT Hand_R
							{
								OFFSET -22.2915 -0.000108084 0.0
								CHANNELS 6 Xposition Yposition Zposition Zrotation Xrotation Yrotation 
								End Site
								{
									OFFSET 0.0 0.0 0.0
								}
							}
						}
					}
				}
			}
		}
		JOINT UpperLeg_L
		{
			OFFSET -2.19248 -6.46944 0.0
			CHANNELS 6 Xposition Yposition Zposition Zrotation Xrotation Yrotation 
			JOINT LowerLeg_L
			{
				OFFSET 39.0811 0.0 -1.23785e-05
				CHANNELS 6 Xposition Yposition Zposition Zrotation Xrotation Yrotation 
				JOINT Foot_L
				{
					OFFSET 40.9854 0.0 -1.26872e-05
					CHANNELS 6 Xposition Yposition Zposition Zrotation Xrotation Yrotation 
					JOINT Toes_L
					{
						OFFSET 11.7543 0.0 0.0
						CHANNELS 6 Xposition Yposition Zposition Zrotation Xrotation Yrotation 
						End Site
						{
							OFFSET 0.0 0.0 0.0
						}
					}
				}
			}
		}
		JOINT UpperLeg_R
		{
			OFFSET -2.19251 6.46944 0.0
			CHANNELS 6 Xposition Yposition Zposition Zrotation Xrotation Yrotation 
			JOINT LowerLeg_R
			{
				OFFSET -39.0811 -0.00228153 -0.0401928
				CHANNELS 6 Xposition Yposition Zposition Zrotation Xrotation Yrotation 
				JOINT Foot_R
				{
					OFFSET -40.9854 0.0 0.0
					CHANNELS 6 Xposition Yposition Zposition Zrotation Xrotation Yrotation 
					JOINT Toes_R
					{
						OFFSET -11.7543 0.0 0.0
						CHANNELS 6 Xposition Yposition Zposition Zrotation Xrotation Yrotation 
						End Site
						{
							OFFSET 0.0 0.0 0.0
						}
					}
				}
			}
		}
	}
}
MOTION
Frames:	4
Frame Time:	0.0333333
0.000000 0.000000 0.000000 0.000000 0.000000 -0.000000 -2.299530 78.045700 413.493000 -86.088200 16.411900 165.840000 15.735700 0.000005 -0.000001 114.956000 79.107700 -114.085000 8.984550 -0.406207 -0.000000 12.026000 9.143200 0.778334 16.377300 -0.000001 -0.000001 -3.066330 0.399101 1.778780 6.456720 -0.000001 -0.000000 -9.628370 -1.666730 -4.363750 12.994200 -0.242716 4.980390 -88.554900 -3.241020 -65.953600 5.348090 -0.000007 -0.000001 -57.286200 19.957500 26.036600 24.328600 0.000019 0.000005 17.508700 34.479600 -29.128700 22.291600 -0.000001 0.000005 -11.111500 5.369490 -1.970300 12.994500 -0.242716 -4.980390 89.628700 2.625620 -81.947400 -5.348130 -0.000001 -0.000004 -50.586500 10.434400 -59.710500 -24.328900 0.000322 -0.000009 -19.129400 0.796709 -92.294800 -22.291500 -0.000108 -0.000004 23.275600 5.562970 -9.333990 -2.192480 -6.469440 -0.000000 174.350000 -6.804370 -66.657600 39.081100 -0.000007 -0.000012 -0.504529 -0.384665 127.324000 40.985400 -0.000006 -0.000013 0.638015 4.112850 -22.840600 11.754300 -0.000000 0.000003 -0.009144 -0.097133 -20.533400 -2.192510 6.469440 -0.000001 178.739000 10.764200 160.701000 -39.081100 -0.002282 -0.040193 -0.076391 0.048212 58.797400 -40.985400 0.000008 0.000006 1.202750 5.826770 -97.418000 -11.754300 -0.000006 -0.000006 -0.137793 -0.251166 -21.649400
0.000000 0.000000 0.000000 0.000000 0.000000 -0.000000 -2.890340 81.346900 403.523000 -90.606800 15.687700 164.339000 15.735700 0.000005 -0.000001 120.893000 80.140700 -121.948000 8.984550 -0.406207 -0.000000 9.356120 10.053800 -2.937450 16.377300 -0.000001 -0.000001 -2.053830 -1.053670 2.442200 6.456720 -0.000001 -0.000000 -9.205810 -3.950750 -3.359910 12.994200 -0.242716 4.980390 -86.809200 -7.008410 -65.444700 5.348090 -0.000007 -0.000001 -54.563400 19.791800 31.419800 24.328600 0.000019 0.000005 13.600000 25.336600 -29.480700 22.291600 -0.000001 0.000005 -10.193000 5.406980 -3.165310 12.994500 -0.242716 -4.980390 90.193300 -1.102990 -80.060200 -5.348130 -0.000001 -0.000004 -53.731500 6.765500 -64.628000 -24.328900 0.000322 -0.000009 -17.681600 3.134260 -99.731900 -22.291500 -0.000108 -0.000004 22.434800 5.529660 -7.779480 -2.192480 -6.469440 -0.000000 170.567000 -0.970853 -69.743000 39.081100 -0.000007 -0.000012 -0.233050 -0.108231 114.913000 40.985400 -0.000006 -0.000013 6.706820 -3.602780 -41.811100 11.754300 -0.000000 0.000003 -0.008399 -0.091266 -20.293600 -2.192510 6.469440 -0.000001 171.588000 11.819400 169.638000 -39.081100 -0.002282 -0.040193 -0.071833 0.072557 45.984500 -40.985400 0.000008 0.000006 -0.325054 7.157650 -84.533700 -11.754300 -0.000006 -0.000006 -0.074537 -0.376377 -32.176400
0.000000 0.000000 0.000000 0.000000 0.000000 -0.000000 -3.201510 85.501800 393.871000 -93.337500 14.390100 161.631000 15.735700 0.000005 -0.000001 125.808000 81.237500 -128.308000 8.984550 -0.406207 -0.000000 6.758800 10.243600 -5.611130 16.377300 -0.000001 -0.000001 -1.760010 -2.307360 2.557530 6.456720 -0.000001 -0.000000 -8.949440 -5.897460 -2.031680 12.994200 -0.242716 4.980390 -85.327600 -10.335600 -65.509000 5.348090 -0.000007 -0.000001 -55.586200 18.542400 35.385100 24.328600 0.000019 0.000005 13.953700 22.649100 -32.831300 22.291600 -0.000001 0.000005 -8.953670 5.419210 -3.572150 12.994500 -0.242716 -4.980390 90.630000 -3.156100 -78.705300 -5.348130 -0.000001 -0.000004 -55.694900 5.549990 -65.245500 -24.328900 0.000322 -0.000009 -12.873800 3.505790 -104.978000 -22.291500 -0.000108 -0.000004 19.851900 5.484800 -5.933100 -2.192480 -6.469440 -0.000000 170.493000 3.461180 -70.574700 39.081100 -0.000007 -0.000012 0.007929 0.000909 96.467100 40.985400 -0.000006 -0.000013 7.266850 -11.147700 -53.884900 11.754300 -0.000000 0.000003 -0.007398 -0.083054 -19.958200 -2.192510 6.469440 -0.000001 167.923000 14.137500 174.185000 -39.081100 -0.002282 -0.040193 0.027120 -0.033084 35.765300 -40.985400 0.000008 0.000006 0.875383 7.110050 -61.059900 -11.754300 -0.000006 -0.000006 -0.274995 -0.757190 -49.692200
0.000000 0.000000 0.000000 0.000000 0.000000 -0.000000 -3.060670 89.109800 384.294000 -92.595700 12.155100 161.178000 15.735700 0.000005 -0.000001 126.147000 81.424100 -128.805000 8.984550 -0.406207 -0.000000 6.402670 10.120100 -5.887410 16.377300 -0.000001 -0.000001 -1.132160 -3.076800 2.653370 6.456720 -0.000001 -0.000000 -10.102300 -7.660980 -1.054180 12.994200 -0.242716 4.980390 -84.534700 -11.992000 -65.274500 5.348090 -0.000007 -0.000001 -57.610000 15.846000 37.014000 24.328600 0.000019 0.000005 14.527800 20.587600 -36.387800 22.291600 -0.000001 0.000005 -6.750500 5.428980 -3.904070 12.994500 -0.242716 -4.980390 90.662400 -3.281910 -78.582600 -5.348130 -0.000001 -0.000004 -54.889100 6.258610 -63.205100 -24.328900 0.000322 -0.000009 -12.482900 3.782410 -106.593000 -22.291500 -0.000108 -0.000004 19.504500 5.464190 -5.154650 -2.192480 -6.469440 -0.000000 173.925000 5.336630 -65.729200 39.081100 -0.000007 -0.000012 0.122107 -0.032622 75.039200 40.985400 -0.000006 -0.000013 8.835230 -10.376800 -60.902100 11.754300 -0.000000 0.000003 -0.007137 -0.080846 -19.868100 -2.192510 6.469440 -0.000001 166.176000 21.119300 179.284000 -39.081100 -0.002282 -0.040193 0.126457 -0.228051 28.369900 -40.985400 0.000008 0.000006 -3.565480 10.956500 -35.809500 -11.754300 -0.000006 -0.000006 -0.145658 -0.546093 -39.642000
